HIERARCHY
ROOT Hips
{
	OFFSET 0.00 0.00 0.00
	CHANNELS 6 Xposition Yposition Zposition Yrotation Xrotation Zrotation
	JOINT LHipJoint
	{
		OFFSET	0.0000	0.0000	0.0000
		CHANNELS 3 Yrotation Xrotation Zrotation
		JOINT LeftUpLeg
		{
			OFFSET	1.0138	-0.0809	-0.0827
			CHANNELS 3 Yrotation Xrotation Zrotation
			JOINT LeftLeg
			{
				OFFSET	0.4110	-3.9095	0.3245
				CHANNELS 3 Yrotation Xrotation Zrotation
				JOINT LeftFoot
				{
					OFFSET	0.3810	-4.0555	-0.1470
					CHANNELS 3 Yrotation Xrotation Zrotation
					JOINT LeftToeBase
					{
						OFFSET	0.1396	-0.4462	1.3079
						CHANNELS 3 Yrotation Xrotation Zrotation
						End Site
						{
							OFFSET 0.0161 -0.0248 0.1809
						}
					}
				}
			}
		}
	}
	JOINT LowerBack
	{
		OFFSET	0.0000	0.7977	-0.3873
		CHANNELS 3 Yrotation Xrotation Zrotation
		JOINT Spine
		{
			OFFSET	0.0000	1.4131	0.1715
			CHANNELS 3 Yrotation Xrotation Zrotation
			JOINT Spine1
			{
				OFFSET	0.0000	1.4392	-0.1032
				CHANNELS 3 Yrotation Xrotation Zrotation
				JOINT LeftShoulder
				{
					OFFSET	0.2274	1.0382	0.4032
					CHANNELS 3 Yrotation Xrotation Zrotation
					JOINT LeftArm
					{
						OFFSET	1.4730	-0.2267	-0.0231
						CHANNELS 3 Yrotation Xrotation Zrotation
						JOINT LeftForeArm
						{
							OFFSET	1.6131	-1.8059	0.0081
							CHANNELS 3 Yrotation Xrotation Zrotation
							JOINT LeftHand
							{
								OFFSET	1.2197	-1.2423	1.6317
								CHANNELS 3 Yrotation Xrotation Zrotation
								JOINT LThumb
								{
									OFFSET	0.0109	-0.0753	0.4387
									CHANNELS 3 Yrotation Xrotation Zrotation
									End Site
									{
										OFFSET -0.2090 -0.0868 0.2097
									}
								}
								JOINT LeftFingerBase
								{
									OFFSET	0.1071	-0.1567	0.2607
									CHANNELS 3 Yrotation Xrotation Zrotation
									JOINT LeftHandFinger1
									{
										OFFSET	0.1706	-0.2492	0.6830
										CHANNELS 3 Yrotation Xrotation Zrotation
										End Site
										{
											OFFSET 0.0335 -0.1507 0.2071
										}
									}
								}
							}
						}
					}
				}
				JOINT Neck
				{
					OFFSET	0.0000	1.7498	0.2381
					CHANNELS 3 Yrotation Xrotation Zrotation
					JOINT Neck1
					{
						OFFSET	0.0000	0.5043	0.1959
						CHANNELS 3 Yrotation Xrotation Zrotation
						JOINT Head
						{
							OFFSET	0.0000	0.5044	0.1959
							CHANNELS 3 Yrotation Xrotation Zrotation
							End Site
							{
								OFFSET 0.0000 1.4798 -0.0693
							}
						}
					}
				}
				JOINT RightShoulder
				{
					OFFSET	-0.2274	1.0382	0.4032
					CHANNELS 3 Yrotation Xrotation Zrotation
					JOINT RightArm
					{
						OFFSET	-1.4730	-0.2267	-0.0231
						CHANNELS 3 Yrotation Xrotation Zrotation
						JOINT RightForeArm
						{
							OFFSET	-1.6131	-1.8059	0.0081
							CHANNELS 3 Yrotation Xrotation Zrotation
							JOINT RightHand
							{
								OFFSET	-1.2197	-1.2423	1.6317
								CHANNELS 3 Yrotation Xrotation Zrotation
								JOINT RThumb
								{
									OFFSET	-0.0109	-0.0753	0.4387
									CHANNELS 3 Yrotation Xrotation Zrotation
									End Site
									{
										OFFSET 0.2090 -0.0868 0.2097
									}
								}
								JOINT RightFingerBase
								{
									OFFSET	-0.1071	-0.1567	0.2607
									CHANNELS 3 Yrotation Xrotation Zrotation
									JOINT RightHandFinger1
									{
										OFFSET	-0.1706	-0.2492	0.6830
										CHANNELS 3 Yrotation Xrotation Zrotation
										End Site
										{
											OFFSET -0.0335 -0.1507 0.2071
										}
									}
								}
							}
						}
					}
				}
			}
		}
	}
	JOINT RHipJoint
	{
		OFFSET	0.0000	0.0000	0.0000
		CHANNELS 3 Yrotation Xrotation Zrotation
		JOINT RightUpLeg
		{
			OFFSET	-1.0138	-0.0809	-0.0827
			CHANNELS 3 Yrotation Xrotation Zrotation
			JOINT RightLeg
			{
				OFFSET	-0.4110	-3.9095	0.3245
				CHANNELS 3 Yrotation Xrotation Zrotation
				JOINT RightFoot
				{
					OFFSET	-0.3810	-4.0555	-0.1470
					CHANNELS 3 Yrotation Xrotation Zrotation
					JOINT RightToeBase
					{
						OFFSET	-0.1396	-0.4462	1.3079
						CHANNELS 3 Yrotation Xrotation Zrotation
						End Site
						{
							OFFSET -0.0161 -0.0248 0.1809
						}
					}
				}
			}
		}
	}
}
MOTION
Frames: 7
Frame Time: 0.0333333
0.5814 5.9372 6.5169 19.5939 -29.5028 -0.9940 0.0000 -0.0000 0.0000 -8.8846 5.2884 18.4824 107.9913 72.1547 103.3151 0.2305 -5.6254 6.0409 21.0615 -46.5079 35.8187 0.0000 -0.0000 0.0000 2.4172 4.7710 -1.2844 4.3154 9.5784 -2.2514 7.3429 -0.2555 2.0754 -11.2786 -1.4609 -10.0455 -1.4613 -0.4608 -1.9548 -18.0714 21.4573 17.0313 26.8697 -3.1970 11.8354 3.6169 13.7038 -2.1768 0.2109 -11.6183 2.6666 10.6434 -1.6459 -10.4800 10.6435 -1.6459 -10.4800 44.7369 -18.4984 -20.8204 10.4443 2.6022 0.2880 -32.5686 15.4352 8.2630 11.8932 -11.8471 0.6169 -9.3467 24.5693 9.1611 -27.9940 -2.6489 -12.2238 5.3960 21.7391 9.9785 6.5920 -3.2613 2.7324 0.0000 -0.0000 0.0000 -11.8855 7.8701 -27.6674 -151.8538 79.7116 -145.7477 0.6363 -4.9748 -5.2774 -0.0000 -13.3858 -0.0000 
0.5857 5.6300 6.7313 21.6363 -30.8105 -1.6352 0.0000 -0.0000 0.0000 -12.1012 6.4866 18.7298 121.1081 71.1321 116.5236 0.3981 -3.7608 7.0883 30.6260 -35.6582 40.2044 0.0000 -0.0000 0.0000 1.9224 5.2167 -1.3224 3.2727 10.4617 -2.3484 7.1348 -0.2553 2.5203 -16.4849 2.2848 -6.5092 -11.1204 -11.0359 -0.7853 -8.1077 17.7085 11.8340 27.0652 -2.6464 12.0196 3.8399 13.4721 -1.9887 0.5631 -12.0886 2.9348 10.5582 -1.2694 -10.9692 10.5582 -1.2694 -10.9692 44.1678 -19.0315 -19.9288 10.2305 2.5139 0.3223 -36.1734 16.0030 3.2781 21.8470 -21.5326 -2.4445 -8.8239 32.3674 7.4280 -27.9940 -2.6489 -12.2237 5.3960 21.7391 9.9785 6.5920 -3.2613 2.7324 0.0000 -0.0000 0.0000 -9.0351 7.2295 -27.0909 -163.6477 74.7538 -157.1540 0.6005 -4.8349 -5.0238 -0.0000 -10.1580 -0.0000 
0.5944 5.2949 6.9612 23.7365 -31.9020 -2.3624 0.0000 -0.0000 0.0000 -15.4782 7.9470 19.0773 133.8988 70.0143 129.1882 0.5034 -1.9601 8.0980 24.8861 -28.7786 45.9974 0.0000 -0.0000 0.0000 1.4429 5.7505 -1.2941 2.2787 11.5196 -2.3038 6.8683 -0.2530 3.1070 -21.0217 10.4891 -0.7194 -23.9353 -23.3579 3.2783 3.2502 11.5830 9.0531 27.2088 -2.4977 12.1308 4.1595 13.1368 -1.7194 0.8475 -12.4711 3.1504 10.4308 -0.8077 -11.5727 10.4308 -0.8076 -11.5728 43.2026 -19.5805 -18.5771 9.9070 2.4051 0.3198 -41.4961 16.5569 -3.2781 33.4329 -30.6674 -7.7614 -7.6108 37.7655 6.8691 -27.9940 -2.6489 -12.2238 5.3960 21.7391 9.9785 6.5920 -3.2613 2.7324 0.0000 -0.0000 0.0000 -5.7251 5.8160 -26.5181 -169.6328 70.1544 -162.7146 0.5151 -4.1901 -4.6990 -0.0000 -6.7203 0.0000 
0.6016 4.9363 7.1987 25.5719 -32.6562 -2.8399 0.0000 -0.0000 0.0000 -18.8331 9.5475 19.3039 146.1595 68.6500 141.0511 0.4736 -0.4811 8.6749 18.3695 -20.5382 41.7531 0.0000 -0.0000 0.0000 0.9795 6.2450 -1.2764 1.3294 12.4999 -2.2804 6.5762 -0.2404 3.7197 -20.6460 22.2663 6.0754 -39.1352 -34.2858 10.9087 11.5020 2.9562 9.7678 27.2433 -2.5756 12.1415 4.3599 12.9247 -1.5509 0.9949 -12.6703 3.2619 10.1322 0.2683 -12.0767 10.1322 0.2684 -12.0767 42.0273 -20.2733 -17.9656 9.4718 2.1559 0.1415 -48.9829 14.8874 -10.9262 42.7001 -36.2714 -13.0164 -4.4614 38.0826 9.2575 -27.9940 -2.6489 -12.2238 5.2731 21.6461 9.8701 6.5012 -3.3631 2.6581 0.0000 -0.0000 0.0000 -2.6312 4.3794 -26.1581 -173.1287 66.5883 -165.7967 0.3998 -3.1818 -4.3646 -1.7096 9.7970 -7.7291 
0.5915 4.5485 7.4238 26.3151 -32.4856 -2.5692 0.0000 -0.0000 0.0000 -21.8595 10.5226 19.6552 156.0179 66.1356 150.4150 0.2572 0.1442 8.4150 13.6546 -11.9327 29.4631 0.0000 -0.0000 0.0000 0.6448 6.4610 -1.4407 0.6293 12.9270 -2.6307 6.3251 -0.2092 4.1976 -12.9803 33.5283 13.5750 -54.8453 -41.6030 20.8229 14.6227 -5.5714 13.0902 27.2302 -2.6470 12.1212 4.3708 12.9133 -1.5418 1.0009 -12.6785 3.2664 9.6490 1.9163 -12.3679 9.6490 1.9163 -12.3680 40.8282 -21.0556 -18.4539 9.1146 1.7846 -0.2119 -57.0329 10.1058 -17.6325 47.3430 -38.5593 -15.8981 -0.6996 33.7542 13.2114 -27.9939 -2.6489 -12.2237 3.7365 20.4480 8.5188 5.3665 -4.6578 1.7341 0.0000 -0.0000 0.0000 0.4286 3.8862 -26.2737 -170.6037 61.9637 -163.4571 0.3694 -4.2464 -2.8453 -7.1512 21.7700 -19.7990 
0.5752 4.1498 7.6247 25.5096 -31.1342 -1.2566 0.0000 -0.0000 0.0000 -24.0090 10.5292 20.1691 161.6285 62.5015 155.6725 -0.0482 0.1401 7.6416 4.8740 -12.7699 15.4436 0.0000 -0.0000 0.0000 0.5866 6.4392 -1.7978 0.4786 12.8837 -3.3696 6.2132 -0.1665 4.3760 -1.8127 40.8412 19.6034 -67.1833 -45.0837 29.4438 14.2771 -11.3412 16.3265 27.2317 -2.6341 12.1203 4.3703 12.9138 -1.5422 1.0009 -12.6785 3.2664 9.1382 3.4973 -12.6127 9.1382 3.4973 -12.6127 39.5785 -21.4854 -19.1133 8.9836 1.4069 -0.5998 -64.0216 3.7999 -21.9698 46.9592 -38.3824 -15.6545 1.3684 27.6666 15.3142 -27.9940 -2.6489 -12.2238 1.1287 18.2562 6.2446 3.4130 -6.9810 0.1647 0.0000 -0.0000 0.0000 3.4446 4.3489 -27.1380 -167.2586 56.8118 -160.7116 0.3168 -5.5556 -1.3378 -5.0515 20.8655 -17.3702 
0.5526 3.7546 7.7832 23.6283 -28.3823 0.5232 0.0000 -0.0000 0.0000 -24.9203 9.2540 21.4066 166.3911 58.8935 159.9219 -0.1283 0.2404 6.7908 0.4991 -18.2291 4.9528 0.0000 -0.0000 0.0000 0.8766 6.2586 -2.1378 1.0602 12.5329 -4.0382 6.3988 -0.1384 3.9470 4.2659 44.0629 19.2917 -71.5774 -45.9223 32.6225 13.4593 -13.8130 16.4986 27.2614 -2.5861 12.1422 4.3678 12.9164 -1.5443 1.0009 -12.6785 3.2664 8.6692 4.7057 -12.5153 8.6692 4.7056 -12.5153 38.5570 -20.8739 -20.4090 9.0613 1.1574 -0.9160 -69.6060 -1.5603 -22.9996 44.1411 -37.0166 -13.8952 0.5353 22.0462 14.2285 -27.9940 -2.6489 -12.2238 -1.2203 16.1008 4.2193 1.5855 -9.2629 -1.2764 0.0000 -0.0000 0.0000 6.4599 3.8873 -29.0673 -167.2010 52.5748 -160.8413 0.2529 -5.1326 -1.1456 -2.9819 20.0305 -13.5477 
